<svg width="24" height="16" viewBox="0 0 24 16" fill="none" xmlns="http://www.w3.org/2000/svg">
<g clip-path="url(#clip0_306_268)">
<path d="M16.8693 0.48515C17.7411 0.0524764 18.1731 0.109256 18.1828 0.547816C18.1944 1.11753 18.1111 1.87513 18.051 2.42332C17.7275 5.40279 17.187 7.83742 17.1463 10.8966C18.5702 7.1714 19.7635 4.58231 21.3017 1.39355C21.7899 0.377478 22.1018 0.567394 22.5027 0.387267C24.0642 -0.315546 24.1223 0.115143 23.9188 0.974604C23.1614 4.15788 21.2222 14.1806 20.9259 15.7239C20.8406 16.1705 20.3602 15.9812 20.2362 15.8066C19.6802 15.0294 19.0526 15.0172 19.1223 14.5004C19.471 11.9273 20.7263 5.47151 21.0537 3.95034C19.3857 7.40612 17.6558 11.7263 16.7666 14.1758C16.5787 14.6959 16.2358 14.6578 16.0227 14.2772C15.7224 13.7426 15.1394 13.4696 15.0425 12.8378C14.7383 10.8292 15.3912 7.00069 15.4822 4.57858C14.5737 7.22445 13.0491 12.3613 12.3807 14.6822C12.1057 15.6425 11.1874 15.4858 11.4315 14.5499C12.4465 10.655 14.6337 3.76631 15.5791 1.28978C15.802 0.706347 16.385 0.725924 16.8693 0.48515Z" fill="black"/>
<path d="M11.3297 0.00761092C11.0353 -0.0648094 10.181 0.401132 9.65595 0.49313C9.48936 0.522495 9.33049 0.700636 9.27431 0.827919C8.43354 2.77978 7.67997 4.64039 7.02712 6.33539C6.19217 6.47948 5.21584 6.66919 4.12324 6.91722C4.90586 4.88842 5.69627 2.88741 6.46728 0.962971C6.84696 0.0154143 5.84738 -0.0746307 5.45991 0.884665C4.95621 2.13176 4.01279 4.46831 2.96862 7.1917C2.20147 7.38179 1.38785 7.59908 0.537394 7.84735C-0.0806045 8.02765 -0.105757 8.19405 0.161587 8.56858C0.308805 8.77711 0.612954 8.7561 0.752417 8.9047C1.11276 9.2898 1.33167 9.75044 1.97673 9.82016C1.40137 11.3755 0.826014 12.9795 0.304908 14.524C-0.0224808 15.4934 0.909315 15.6917 1.26773 14.6659C1.84502 13.0122 2.45331 11.3385 3.07903 9.66977C3.60014 9.54738 4.86126 9.2729 6.02553 9.01761C5.10147 11.5771 4.49315 13.521 4.26266 14.4672C4.22005 14.6492 4.29171 14.7502 4.33046 14.8244C4.64234 15.2831 4.93874 15.3019 5.33976 15.8691C5.44827 16.0237 5.81248 16.1071 5.93643 15.7263C6.79268 13.1126 7.67412 10.6601 8.49549 8.46159C8.83643 8.38623 9.45053 8.23646 9.82635 7.66969C10.4947 6.66378 10.6865 6.86779 10.8473 6.56199C11.0488 6.17809 10.9151 5.81767 10.2022 5.90672C10.2022 5.90672 9.93292 5.92609 9.43504 5.98345C10.2254 3.92687 10.917 2.18251 11.4149 0.853245C11.5854 0.403082 11.6068 0.0741788 11.3297 0.00761092Z" fill="black"/>
<path d="M10.1672 13.3465C10.3513 13.8165 10.9266 13.6742 10.7077 13.1069C10.4849 12.5289 9.93088 10.7891 9.78556 10.2286C9.58798 9.47328 10.4442 9.67983 10.0103 10.1736C9.63837 10.5982 9.39037 10.7683 8.70267 11.5757C8.03821 12.3551 8.21837 13.3665 8.92934 13.5898C9.73133 13.842 10.4384 12.9489 10.8762 12.2936C11.3005 11.6591 10.8898 11.287 10.4617 11.6621C10.1866 11.9033 9.86887 12.2736 9.54727 12.4733C9.28575 12.6341 9.08039 12.4614 9.42912 11.9763C9.83399 11.4146 10.2873 10.944 10.6244 10.4132C11.3121 9.33159 9.95215 8.70807 9.36711 9.41068C9.05326 9.7852 9.13271 10.1529 9.21795 10.4684C9.35551 10.9739 9.86694 12.5875 10.1672 13.3465Z" fill="black"/>
</g>
<defs>
<clipPath id="clip0_306_268">
<rect width="24" height="16" fill="white"/>
</clipPath>
</defs>
</svg>
