<svg width="88" height="16" viewBox="0 0 88 16" fill="none" xmlns="http://www.w3.org/2000/svg">
<g clip-path="url(#clip0_308_360)">
<path d="M47.875 14.9235H59.231V13.5296H49.8218V9.06947H56.8892V7.65913H49.8218V3.54992H59.231V2.16113H47.875V14.9235Z" fill="black"/>
<path d="M53.7797 0.0981445L52.2422 1.8338L57.0687 0.0981445H53.7797Z" fill="black"/>
<path d="M78.2984 13.5296V2.16113H76.5234V14.9235H88.0034V13.5296H78.2984Z" fill="black"/>
<path d="M66.5906 2.16113L60.1328 14.9235H62.3157L63.9677 11.6202H71.7128L73.379 14.9235H75.5393L69.0764 2.16113H66.5906ZM64.7852 10.0205L67.8282 3.92464L70.9069 10.0205H64.7852Z" fill="black"/>
<path d="M41.7138 9.58689C44.6234 8.80672 44.9061 6.63125 44.8914 5.85351C44.7177 3.57357 43.189 2.16113 40.4422 2.16113H32.4375V14.9235H34.2623V9.56987H39.4735L43.3074 14.9235H45.6074C45.6074 14.9235 42.8483 11.3204 41.7138 9.58689ZM40.1931 8.06193H34.2623V3.67173H40.3997C41.8128 3.67173 42.6077 4.33462 42.894 5.17669C43.0834 5.75391 42.962 6.51165 42.6486 7.02752C42.1357 7.88042 41.1613 8.06193 40.1931 8.06193Z" fill="black"/>
<path d="M21.4745 0C16.3234 0 12.8125 3.6496 12.8125 8.06687C12.8125 12.7172 16.6908 16 21.4745 16C26.2549 16 30.1317 12.764 30.1317 8.06687C30.1317 3.6496 26.5774 0 21.4745 0ZM21.4126 14.4158C17.8489 14.4158 14.9125 11.538 14.9125 8.07119C14.9125 4.60917 17.7103 1.5935 21.5508 1.5935C25.2962 1.5935 28.0494 4.60917 28.0494 8.07119C28.0494 11.5378 24.9749 14.4158 21.4126 14.4158Z" fill="black"/>
<path d="M8.21094 6.67601H9.52764L11.9176 2.16113H9.99437L8.21094 6.67601Z" fill="black"/>
<path d="M1.77595 13.5296V2.16113H0V14.9235H11.4795V13.5296H1.77595Z" fill="black"/>
</g>
<defs>
<clipPath id="clip0_308_360">
<rect width="88" height="16" fill="white"/>
</clipPath>
</defs>
</svg>
