<svg width="50" height="16" viewBox="0 0 50 16" fill="none" xmlns="http://www.w3.org/2000/svg">
<g clip-path="url(#clip0_308_340)">
<path d="M5.53028 0.135613C5.3495 0.135613 5.25136 0.104343 5.12222 0.0887078C3.9652 3.04897 1.55301 8.41184 0.101562 11.6014C0.313339 11.5701 0.50962 11.5024 0.819538 11.5024C1.12945 11.5024 1.29474 11.5649 1.48586 11.6014C2.02305 9.51151 2.67904 8.04701 3.00445 7.29131H7.13152C7.53958 8.19815 8.2059 9.62617 8.77925 11.6014C9.08917 11.5545 9.39908 11.5024 9.82264 11.5024C10.2307 11.5024 10.5045 11.5493 10.7834 11.6014C10.7472 11.5389 7.14702 3.53887 5.89185 0.0834961C5.75755 0.119978 5.67491 0.135613 5.53028 0.135613ZM3.32987 6.47307L5.04474 2.39229L6.80611 6.47307H3.32987Z" fill="black"/>
<path d="M15.6965 3.52344C13.0209 3.52344 11.7812 5.43093 11.7812 7.70324C11.7812 10.2414 13.2998 11.8205 15.7792 11.8205C17.1015 11.8205 18.0984 11.44 18.8112 10.7469C18.8267 10.4863 18.8267 10.2205 18.9248 9.76187L18.7286 9.71497C18.4806 10.0589 17.7317 11.044 16.1356 11.044C15.6655 11.044 14.6015 10.9971 13.8525 9.76187C13.4135 9.00617 13.4135 8.06806 13.4135 7.60943H19.2658C19.2812 6.71823 19.3277 3.52344 15.6965 3.52344ZM13.4238 6.91627C13.5684 5.26937 14.2554 4.18533 15.6759 4.18533C17.6335 4.18533 17.6335 6.37425 17.6335 6.91627H13.4238Z" fill="black"/>
<path d="M23.8011 6.84853C23.2329 6.7026 22.267 6.35341 22.267 5.39967C22.267 4.69087 22.7887 4.16449 23.7804 4.16449C24.0438 4.16449 24.4984 4.20097 24.8393 4.44592C25.3145 4.77426 25.4126 5.18599 25.4746 5.43094H25.6864C25.7381 4.87328 25.8517 4.47719 26.0118 4.04983C25.6347 3.857 24.9839 3.50781 23.8579 3.50781C21.6058 3.50781 21.0325 5.02442 21.0325 5.95732C21.0325 7.40618 22.1895 7.91693 22.892 8.14625C24.6017 8.7039 25.1595 8.88631 25.1595 9.82442C25.1595 10.7625 24.3589 11.1743 23.5118 11.1743C23.1554 11.1743 22.7267 11.1065 22.3238 10.8616C21.7195 10.4967 21.5593 10.0537 21.4405 9.77231L21.2443 9.81921C21.2133 10.0329 21.0841 10.7417 20.8672 11.1378C21.048 11.2681 21.9571 11.8257 23.2794 11.8257C25.5469 11.8257 26.4147 10.429 26.4147 9.17817C26.425 7.54169 25.2525 7.22898 23.8011 6.84853Z" fill="black"/>
<path d="M32.218 3.50781C29.7697 3.50781 28.0703 5.1026 28.0703 7.66677C28.0703 11.0388 30.4825 11.8309 32.218 11.8309C34.6922 11.8309 36.4897 10.184 36.4897 7.56775C36.4897 5.56644 35.3172 3.50781 32.218 3.50781ZM32.2335 11.1743C30.7304 11.1743 29.7387 9.90781 29.7387 7.61986C29.7387 7.12475 29.7387 4.16449 32.3162 4.16449C34.4391 4.16449 34.8265 6.35341 34.8265 7.6355C34.8265 9.80879 33.7986 11.1743 32.2335 11.1743Z" fill="black"/>
<path d="M42.8305 3.49219C41.0227 3.49219 40.3202 4.64398 40.0619 5.07134C40.0619 4.72737 40.0619 4.4772 40.1291 3.57558C39.9018 3.62248 39.6229 3.6746 39.3284 3.6746C39.0185 3.6746 38.7551 3.62769 38.5278 3.57558C38.5795 5.96255 38.6105 7.9847 38.6105 9.48567C38.6105 11.6277 38.564 13.7801 38.4297 15.9169C38.688 15.8492 38.8997 15.8179 39.3078 15.8179C39.7003 15.8179 39.9121 15.8492 40.1549 15.9169C40.0568 14.4055 40.0722 12.9046 40.0722 10.3248C40.3357 11.0023 41.1983 11.8518 42.7324 11.8518C44.8656 11.8518 46.4514 10.2205 46.4514 7.62509C46.4565 4.69088 44.4627 3.49219 42.8305 3.49219ZM42.4431 11.0127C41.6942 11.0127 41.1363 10.7156 40.7179 10.2049C40.3718 9.79838 40.0464 9.25114 40.0464 7.80228C40.0464 6.17101 40.3873 5.58209 40.7179 5.17036C41.095 4.69088 41.6632 4.31564 42.5464 4.31564C43.6053 4.31564 44.7778 5.21727 44.7778 7.70326C44.7727 8.22965 44.7727 11.0127 42.4431 11.0127Z" fill="black"/>
<path d="M18.0171 1.46973H13.5078V1.98569H18.0171V1.46973Z" fill="black"/>
<path d="M48.8297 9.61572C48.2512 9.61572 47.7656 10.0848 47.7656 10.6945C47.7656 11.2991 48.2408 11.7734 48.8348 11.7734C49.4237 11.7734 49.8989 11.2991 49.8989 10.6945C49.8937 10.0952 49.4289 9.61572 48.8297 9.61572ZM48.8297 11.5805C48.3338 11.5805 47.9671 11.2001 47.9671 10.6945C47.9671 10.1994 48.339 9.80856 48.8297 9.80856C49.341 9.80856 49.6974 10.2099 49.6974 10.6945C49.6974 11.2053 49.3255 11.5805 48.8297 11.5805Z" fill="black"/>
<path d="M49.2867 10.3505C49.2867 10.0586 48.982 10.0638 48.6824 10.0638C48.5429 10.0638 48.481 10.0638 48.388 10.0586C48.3931 10.1889 48.4035 10.34 48.4035 10.6423C48.4035 10.9915 48.3983 11.1426 48.3828 11.2729C48.419 11.2677 48.4345 11.2625 48.4964 11.2625C48.5584 11.2625 48.5791 11.2729 48.6307 11.2729C48.6152 11.0071 48.6153 10.8664 48.6153 10.6788H48.6566C48.7702 10.8143 48.9303 10.9811 49.1318 11.2729C49.1989 11.2677 49.2403 11.2625 49.2816 11.2625C49.3281 11.2625 49.3642 11.2729 49.4055 11.2729L49.4159 11.2521C49.3384 11.1739 48.9768 10.7622 48.8942 10.6527C49.013 10.6475 49.2867 10.6058 49.2867 10.3505ZM48.6153 10.6006C48.6153 10.4599 48.6153 10.314 48.6204 10.1524C48.8167 10.1524 49.0543 10.1524 49.0543 10.3713C49.0543 10.6006 48.7444 10.6006 48.6153 10.6006Z" fill="black"/>
</g>
<defs>
<clipPath id="clip0_308_340">
<rect width="50" height="16" fill="white"/>
</clipPath>
</defs>
</svg>
