<svg width="125" height="16" viewBox="0 0 125 16" fill="none" xmlns="http://www.w3.org/2000/svg">
<path d="M0 0H6.1875C9.27083 0 11.1875 1.72244 11.1875 3.98443C11.2292 5.35408 10.4792 6.64073 9.27083 7.3048C10.9583 7.82361 12.1042 9.38003 12.1042 11.1232C12.1042 13.8833 9.95833 15.7302 6.45833 15.7302H0V0ZM6.25 6.45396C7.70833 6.45396 8.5625 5.83139 8.5625 4.46174C8.5625 3.09209 7.72916 2.49027 6.25 2.49027H2.625V6.47471H6.25V6.45396ZM6.91667 13.2607C8.35417 13.2607 9.35417 12.5344 9.35417 11.1025C9.35417 9.67056 8.35417 8.92348 6.91667 8.92348H2.64583V13.2607H6.91667ZM13.2083 10.1271C13.2083 6.35019 15.6875 4.27497 18.5833 4.27497C20 4.27497 21.2083 4.93904 22.0625 5.72763L22.9375 4.50324H24.625V15.751H22.0417V14.3606C21.3125 15.1284 20.1875 15.9792 18.5 15.9792C15.8542 15.9585 13.2083 13.904 13.2083 10.1271ZM22.0625 10.9572V9.31777C22.0625 7.69909 20.6875 6.49546 19.0208 6.49546C17.2708 6.49546 15.8125 7.65758 15.8125 10.1271C15.8125 12.5966 17.25 13.7588 19.0417 13.7588C20.6667 13.7588 22.0417 12.5759 22.0625 10.9572ZM48.6875 4.50324H45.5417L40.9167 9.71206V0H38.3542V15.7302H40.9167V10.5214L45.5417 15.7302H48.7083L43.6875 10.1064L48.6875 4.50324ZM55.1667 4.50324H52L47 10.1271L52 15.751H55.1667L50.1458 10.1271L55.1667 4.50324ZM69.9583 0L65.2708 10.0441L60.5625 0H57.7292V15.7302H60.2917V5.08431L64.0625 13.1984H66.4583L70.2292 5.08431V15.7302H72.7708V0H69.9583ZM74.3542 10.1271C74.3542 6.35019 76.8333 4.27497 79.7292 4.27497C81.1458 4.27497 82.3542 4.93904 83.2083 5.72763L84.1042 4.50324H85.7917V15.751H83.2083V14.3606C82.4792 15.1284 81.3542 15.9792 79.6667 15.9792C77.0208 15.9585 74.3542 13.904 74.3542 10.1271ZM83.2083 10.9572V9.31777C83.2083 7.69909 81.8333 6.49546 80.1667 6.49546C78.3958 6.49546 76.9583 7.65758 76.9583 10.1271C76.9583 12.5966 78.3958 13.7588 80.1875 13.7588C81.8333 13.7588 83.2083 12.5759 83.2083 10.9572ZM87.6042 4.50324H89.2917L90.1875 5.72763C90.9583 4.85603 91.7083 4.31647 92.8542 4.31647H94.75V6.74449H91.875C90.8125 6.74449 90.1875 7.24254 90.1875 8.44618V15.7302H87.6042V4.50324ZM119.875 12.8457V6.70298H117.792V4.50324H119.875V2.32425L122.479 0.830091V4.50324H125V6.70298H122.479V12.4306C122.479 13.1777 122.917 13.5097 123.771 13.5097H124.896V15.7302H123C121.146 15.7302 119.875 14.9416 119.875 12.8457ZM114.625 11.9118C114.208 13.0324 113.271 13.8003 111.708 13.8003C109.896 13.8003 108.646 12.6796 108.521 10.8327H117.167V10.0441C117.167 6.4332 114.875 4.29572 111.667 4.29572C108.667 4.29572 106.021 6.64072 106.021 10.1479C106.021 13.655 108.271 16 111.667 16C114.292 16 116.104 14.7341 116.875 12.4306C116.208 12.2438 115.437 12.0778 114.625 11.9118ZM111.667 6.37095C113.292 6.37095 114.583 7.28405 114.729 8.96498H108.562C108.875 7.3048 110.125 6.37095 111.667 6.37095ZM106.417 4.50324H103.25L98.625 9.69131V0H96.0417V15.7302H98.625V10.5421L103.25 15.7302H106.417L101.396 10.1064L106.417 4.50324ZM31.7917 13.6965C29.9167 13.6965 28.5208 12.4099 28.5208 10.1271C28.5208 7.84435 29.9167 6.53696 31.7917 6.53696C33.4167 6.53696 34.4583 7.3463 34.8125 8.59144C35.3958 8.46692 36.6042 8.23865 37.1042 8.11414C36.5417 5.70687 34.5625 4.27497 31.7708 4.27497C28.5208 4.27497 26 6.64072 26 10.1271C26 13.6135 28.5208 15.9792 31.7708 15.9792C34.5208 15.9792 36.4375 14.5888 37.0833 12.1193C36.5625 11.9948 35.375 11.7665 34.7917 11.642C34.375 12.9287 33.4167 13.6965 31.7917 13.6965Z" fill="black"/>
</svg>
