<svg width="97" height="16" viewBox="0 0 97 16" fill="none" xmlns="http://www.w3.org/2000/svg">
<g clip-path="url(#clip0_306_284)">
<path d="M72.5937 9.86913C72.5937 7.92616 71.0447 6.39954 69.0899 6.39954C67.1628 6.39954 65.5861 7.92616 65.5861 9.86913C65.5861 11.8121 67.1628 13.3387 69.0899 13.3387C71.0447 13.3387 72.5937 11.8121 72.5937 9.86913ZM75.4521 4.18826V15.5592H72.5384V14.5322C71.5241 15.3742 70.2425 15.8461 68.8502 15.8461C65.4017 15.8461 62.7093 13.1907 62.7093 9.86913C62.7093 6.55683 65.4109 3.89219 68.8502 3.89219C70.2425 3.89219 71.5241 4.36406 72.5384 5.20601V4.18826H75.4521ZM85.1336 12.9779H82.9392C82.2753 12.9779 81.8419 12.6911 81.8419 12.0804V6.76038H85.1244V4.18826H81.8419V0.949988H78.9006V4.18826H76.6876V6.76963H78.9006V12.8113C78.9006 14.3379 79.9978 15.55 81.971 15.55H85.1244V12.9779H85.1336ZM91.7724 15.8461C95.1379 15.8461 97.0374 14.2639 97.0374 12.0804C97.0374 10.526 95.9124 9.36951 93.5612 8.86989L91.0717 8.37027C89.6333 8.11121 89.1722 7.84289 89.1722 7.31551C89.1722 6.63085 89.8638 6.2145 91.1454 6.2145C92.5377 6.2145 93.552 6.58459 93.847 7.84289H96.7607C96.604 5.47432 94.8613 3.89219 91.3391 3.89219C88.2963 3.89219 86.1571 5.13199 86.1571 7.52832C86.1571 9.18446 87.3374 10.267 89.873 10.7943L92.6484 11.4235C93.7456 11.6363 94.0407 11.9231 94.0407 12.3672C94.0407 13.0796 93.2108 13.5238 91.8739 13.5238C90.1957 13.5238 89.2276 13.1537 88.8587 11.8954H85.9174C86.3508 14.2639 88.1395 15.8461 91.7724 15.8461ZM50.9531 0.154297H61.9348V2.78193H53.9221V6.54758H61.7227V9.10119H53.9221V12.9131H61.9348V15.5407H50.9531V0.154297Z" fill="black"/>
<path d="M45.7331 6.30702V4.24378H44.9493C43.7046 4.24378 42.7825 4.81741 42.2293 5.71488V4.32705H39.9979V15.5315H42.2477V9.16596C42.2477 7.42654 43.3173 6.30702 44.7926 6.30702H45.7331ZM29.5418 8.89764C29.9475 7.18598 31.349 6.03871 33.018 6.03871C34.6869 6.03871 36.0976 7.17673 36.4757 8.89764H29.5418ZM33.0641 4.11425C29.7447 4.11425 27.2182 6.76963 27.2182 9.93389C27.2182 13.2739 29.8461 15.7813 33.2669 15.7813C35.3415 15.7813 37.0381 14.8838 38.1722 13.385L36.5402 12.2007C35.6919 13.3202 34.5762 13.8476 33.2577 13.8476C31.3398 13.8476 29.8 12.4875 29.4865 10.6648H38.7439V9.94314C38.7531 6.59384 36.3466 4.11425 33.0641 4.11425ZM20.1922 13.8476C18.0069 13.8476 16.2642 12.1082 16.2642 9.96165C16.2642 7.78738 18.0254 6.07572 20.1922 6.07572C22.3314 6.07572 24.0925 7.78738 24.0925 9.96165C24.1017 12.1082 22.3406 13.8476 20.1922 13.8476ZM14.0605 15.5407H16.2919V14.1344C17.3154 15.1706 18.7722 15.7998 20.3489 15.7998C23.696 15.7998 26.3238 13.1814 26.3238 9.9524C26.3238 6.70487 23.696 4.08649 20.3489 4.08649C18.763 4.08649 17.3338 4.72489 16.3104 5.75189V0.154297H14.0605V15.5407ZM6.1401 13.7366C8.30693 13.7366 9.97584 12.0897 9.97584 9.64707V0.154297H12.3179V15.5315H9.99429V14.1066C8.94314 15.1799 7.49552 15.7998 5.86349 15.7998C2.51643 15.7998 -0.046875 13.4035 -0.046875 9.7766V0.154297H2.30436V9.64707C2.30436 12.1359 3.95484 13.7366 6.1401 13.7366Z" fill="black"/>
</g>
<defs>
<clipPath id="clip0_306_284">
<rect width="97" height="16" fill="white"/>
</clipPath>
</defs>
</svg>
