<svg width="49" height="16" viewBox="0 0 49 16" fill="none" xmlns="http://www.w3.org/2000/svg">
<g clip-path="url(#clip0_306_273)">
<path d="M9.82125 0C9.65305 0 9.44886 0.143177 8.89885 0.627591C8.70351 0.69918 8.49046 0.645488 8.24201 1.03147C6.84041 3.06756 5.74922 10.6816 4.81738 12.8793C4.63089 11.9284 4.2408 5.7396 4.08973 4.04474C4.07202 3.73095 4.10743 3.33602 4.10743 3.10336C4.10743 1.54273 3.77105 0.752871 2.22663 0.752871C1.44586 0.752871 0.674539 1.04042 0.266157 1.56063C0.0714079 1.82908 0 2.02714 0 2.51096C0 5.74914 0.763062 11.058 1.61465 14.5199C1.8808 15.6057 2.8392 15.8115 3.7439 15.8115C4.16999 15.8115 4.59548 15.7578 5.19921 15.4529C7.29246 14.4209 7.85192 11.6051 8.39309 8.8698C8.49046 8.37644 8.97851 5.99075 9.20926 4.73557C9.51968 3.02222 9.87436 1.08516 10.0874 0.376435C10.1582 0.16167 10.0248 0 9.82125 0ZM45.38 7.74884C45.0968 9.89232 44.0138 13.5606 42.807 13.5606C42.4612 13.5606 42.2841 13.1567 42.2841 12.6634C42.2841 11.2555 43.2242 8.43967 45.38 7.74884ZM34.8494 10.1614C35.1244 8.90559 36.313 6.98643 37.3776 6.98643C37.5724 6.98643 37.6792 7.11171 37.6526 7.41715C37.5907 8.36749 36.8896 9.94661 34.8494 10.1614ZM48.9823 0.968233C48.9823 0.592394 48.7521 0.260104 48.2281 0.260104C47.8026 0.260104 47.3057 0.47487 46.9947 0.744519C46.6229 0.655034 46.1254 0.941387 46.0634 1.28262C45.7442 2.79791 45.6019 4.37644 45.4249 5.67696C43.2779 5.87383 41.645 7.07591 40.8465 9.04042C40.7144 9.36452 40.5604 9.67905 40.3856 9.9818C39.2496 11.9374 37.8303 13.0673 36.4375 13.0673C35.4166 13.0673 34.8317 12.3406 34.7603 11.3539C35.1244 11.4434 35.4703 11.4887 35.7895 11.4887C38.0964 11.4887 39.2673 9.28262 39.2673 7.79359C39.2673 6.34989 38.3095 5.61432 36.8896 5.61432C34.2988 5.63221 32.143 8.75347 32.143 11.6051C32.143 13.6322 33.0394 15.2376 35.0802 15.2376C36.6588 15.2376 38.8418 14.3588 40.3231 12.0984C40.2257 13.7038 40.6423 15.2734 42.0003 15.4261C42.7633 15.4977 44.1472 15.0133 45.0696 13.112C45.1404 14.6905 45.6373 15.4529 46.0369 15.4529C46.7557 15.4529 47.2077 15.1928 47.7666 15.166C47.9442 15.157 47.9973 14.9954 47.9973 14.8522C47.9973 14.6189 47.7318 13.7575 47.7318 12.5196C47.7318 10.6279 48.1036 7.66831 48.8938 1.63221C48.9292 1.48904 48.9823 1.19195 48.9823 0.968233ZM13.4943 4.834C14.1866 4.834 14.7543 4.2601 14.7543 3.63251C14.7543 2.80746 14.5058 2.0182 13.5829 2.0182C12.9532 2.0182 11.862 2.73527 11.862 3.35451C11.862 4.08054 12.6516 4.834 13.4943 4.834ZM32.3649 4.33169C31.966 4.25116 31.531 4.24221 31.0872 4.24221C31.1049 3.92841 31.0784 3.32707 31.0872 2.79851C31.0872 2.71738 31.1226 2.5742 31.1226 2.39463C31.1226 2.21566 31.0872 2.0182 30.9633 1.83863C31.0076 1.71335 31.0341 1.60537 31.0341 1.52483C31.0341 1.09411 30.4044 0.933035 29.8102 0.933035C29.2955 0.933035 28.8163 1.12095 28.6476 1.68591C28.3726 2.68158 28.2929 3.11171 28.2221 4.15212C27.6006 4.18792 26.3944 4.19746 26.4209 4.58285C26.4918 5.57852 27.4413 5.90127 28.1241 5.91917C28.0444 8.65444 25.7818 13.0852 25.0813 13.0852C24.9479 13.0852 24.8948 12.8704 24.8948 12.4122C24.8948 11.5156 25.0813 10.3135 25.0813 9.04042C25.0813 8.25116 25.001 7.53348 24.762 7.07591C24.4599 6.52886 23.4667 6.25981 22.6859 6.25981C22.3837 6.25981 22.1359 6.2956 21.9405 6.36719C20.6452 6.89694 19.554 9.87442 19.1456 10.5378C19.3409 8.73557 19.6336 7.32707 19.6336 6.59209C19.6336 6.17927 19.2701 5.81178 18.8617 5.81178C18.7024 5.81178 18.5608 5.86547 18.4274 5.99075C17.8414 6.20611 17.0606 5.99075 16.9278 6.83371C16.8924 7.05802 16.8481 7.32707 16.8304 7.63251C16.6882 9.82073 14.523 13.8744 13.4147 13.8744C13.1397 13.8744 13.0771 13.5159 13.0771 13.0583C13.0771 11.5335 13.8579 8.32274 13.8756 7.67726C13.9204 7.57822 13.9464 7.46189 13.9464 7.36346C13.9464 6.75317 13.237 6.16137 12.5094 6.16137C12.2969 6.16137 12.1458 6.11663 11.9771 6.11663C11.8708 6.11663 11.7552 6.13453 11.6312 6.21506C10.8239 6.73527 10.1146 9.71275 10.1146 11.5424C10.1146 13.5606 11.2766 15.1749 13.1219 15.1749C14.4439 15.1749 15.5616 13.955 16.5106 12.2691C16.5106 12.5292 16.4575 13.7933 16.5106 14.511C16.546 15.0043 17.0517 14.789 17.6643 15.0401C17.8945 15.237 18.1075 15.3271 18.294 15.3271C18.6044 15.3271 18.844 15.0491 19.0217 14.5647C19.7493 12.5471 21.5062 8.0179 22.0025 8.0179C22.3749 8.0179 21.9936 10.9327 21.9936 12.3764C21.9936 13.2015 22.0733 13.9102 22.3572 14.2151C22.8806 14.7711 23.4395 15.0401 24.0255 15.0401C25.3209 15.0401 26.6871 13.6412 27.8048 11.0401C27.734 12.1521 27.7252 12.4934 27.7252 12.8787C27.7252 13.5242 27.7606 14.2419 27.8491 14.7621C27.9022 15.0133 27.9294 15.1928 28.1507 15.3539C28.4522 15.5245 28.7272 15.623 28.8783 15.7309C29.2241 15.901 29.1976 15.9911 29.6768 15.9911C29.8456 15.9911 30.0763 15.83 30.1117 15.444C30.5372 11.1839 30.981 5.92871 30.981 5.92871C31.2649 5.91916 32.0728 5.71275 32.8264 5.62327C33.1457 5.58747 33.5275 5.3906 33.5275 5.15675C33.5275 4.92409 33.0217 4.47547 32.3649 4.33169Z" fill="black"/>
</g>
<defs>
<clipPath id="clip0_306_273">
<rect width="49" height="16" fill="white"/>
</clipPath>
</defs>
</svg>
