<svg width="46" height="16" viewBox="0 0 46 16" fill="none" xmlns="http://www.w3.org/2000/svg">
<g clip-path="url(#clip0_306_263)">
<path opacity="0.9" d="M37.3906 13.8618C37.3906 13.1811 37.8015 12.7302 38.6117 12.7302C39.5599 12.7302 39.8328 13.0647 40.1633 14.4524C40.2782 14.9266 40.5626 15.2146 41.3039 15.2146C42.3095 15.2146 42.8555 14.6589 42.8555 13.8386C42.8555 13.1229 42.1372 12.5469 40.735 11.6451C39.195 10.6851 38.3503 9.77456 38.3503 8.43347C38.3503 6.35347 40.6316 5.10547 42.7204 5.10547C45.0678 5.10547 45.97 6.12365 45.97 7.08074C45.97 7.71783 45.5591 8.06401 44.8523 8.06401C43.9616 8.06401 43.6887 7.7062 43.3927 6.62983C43.2548 6.08874 42.9819 5.86765 42.4446 5.86765C41.6027 5.86765 41.031 6.30692 41.031 7.10401C41.031 7.8662 41.7723 8.34038 43.4042 9.37892C44.9443 10.2924 45.6281 11.2989 45.6281 12.4771C45.6281 14.4175 43.5623 15.9884 40.985 15.9884C38.4192 15.9535 37.3906 14.8917 37.3906 13.8618Z" fill="black"/>
<path opacity="0.9" d="M1.06802 4.8758C1.06802 4.42489 1.06802 3.02562 1.02205 2.74926C0.953097 2.36816 0.852535 2.34489 0.257781 2.19362C0.0537838 2.14998 0.0078125 1.99871 0.0078125 1.8358C0.0078125 1.62926 0.0307982 1.60598 0.657157 1.47798C1.88976 1.18998 2.92699 0.762347 3.93261 0.171801C4.13661 0.0234375 4.18258 0.0234375 4.22855 0.0234375C4.39807 0.0234375 4.39807 0.218347 4.39807 0.474347V2.71435L4.37508 6.36526C4.37508 6.59507 4.37508 6.71144 4.47852 6.71144C4.5015 6.71144 4.54748 6.71144 4.82043 6.45835C5.79157 5.62635 6.88626 5.12889 8.15335 5.12889C9.09863 5.12889 9.96634 5.42853 10.6157 6.13544C11.1875 6.73471 11.2679 7.62489 11.2679 8.60526V14.3013C11.2679 14.8103 11.3685 15.0053 12.0092 15.1798C12.0092 15.1798 12.1787 15.2613 12.5551 15.2613C12.9315 15.2613 13.0809 15.2031 13.0809 15.2031C13.7762 14.9965 13.7762 14.7289 13.7762 13.6205L13.7532 10.8482C13.7532 10.3973 13.7302 8.15726 13.6843 7.87798C13.6153 7.49689 13.5147 7.47362 12.92 7.32526C12.716 7.27871 12.67 7.12744 12.67 6.96744C12.67 6.75798 12.693 6.73471 13.3194 6.60671C14.5405 6.33035 15.5777 5.90271 16.5833 5.30344C16.7873 5.15216 16.8333 5.15216 16.8793 5.15216C17.0488 5.15216 17.0488 5.34998 17.0488 5.60307V13.7922C17.0488 14.7987 17.1292 14.9849 17.8475 15.1798C17.8475 15.1798 18.0774 15.2613 18.4998 15.2613C18.9106 15.2613 19.1376 15.1798 19.1376 15.1798C19.9823 14.9733 19.9823 14.6707 19.9823 13.6438C19.9823 11.8518 19.9823 9.54198 19.9134 8.25907C19.8904 7.48526 19.8674 7.47362 18.8647 7.30198C18.6118 7.25544 18.5888 7.12744 18.5888 6.9558C18.5888 6.6998 18.6923 6.67653 19.0686 6.60671C19.9593 6.4118 21.327 6.05398 22.5251 5.34998C22.9015 5.11726 22.9475 5.11726 23.0049 5.11726C23.1543 5.11726 23.1543 5.2918 23.1543 5.41689V6.33035C23.1543 6.5398 23.1543 6.62998 23.2549 6.62998C23.3239 6.62998 23.3583 6.62998 23.5077 6.48162C24.545 5.54489 25.4472 5.09398 26.6108 5.09398C27.6595 5.09398 28.5043 5.44016 29.1191 6.2838C29.438 6.71144 29.461 6.73471 29.5415 6.73471C29.5875 6.73471 29.6219 6.73471 30.0098 6.37689C30.6592 5.75435 31.7538 5.07071 33.1904 5.07071C33.3858 5.07071 35.2333 5.09398 35.9746 6.4118C36.2475 6.89762 36.3969 7.16235 36.3969 9.99289V14.2431C36.3969 14.6009 36.3969 14.95 37.0693 15.1216C37.3221 15.1914 37.4686 15.2263 37.4686 15.526C37.4686 15.7238 37.4227 15.8489 37.1267 15.8722H36.5004H34.1846H32.4607C32.2567 15.8722 31.9952 15.8256 31.9952 15.4678C31.9952 15.2613 32.1187 15.2147 32.3486 15.1449C32.771 15.0169 33.0439 14.95 33.0439 13.9085V11.8402C33.0439 11.2409 33.0439 8.53835 32.9979 8.16889C32.975 7.80816 32.8715 6.55144 31.4579 6.55144C31.0355 6.55144 29.7914 6.87435 29.7914 8.06417V14.1878C29.7914 14.8103 29.8949 14.9616 30.5672 15.1216C30.7971 15.1914 30.9436 15.2263 30.9436 15.4678C30.9436 15.8256 30.7511 15.8722 30.1908 15.8722H28.3548H25.9471C25.6512 15.8722 25.4242 15.8489 25.4242 15.5143C25.4242 15.3078 25.5018 15.2613 25.7201 15.1914C26.4844 14.9616 26.4844 14.6591 26.4844 13.702C26.4844 12.6954 26.4844 8.53835 26.381 7.85471C26.2344 6.97617 25.4903 6.6998 24.9329 6.6998C24.2146 6.6998 23.5192 7.20889 23.3124 7.75289C23.2434 7.92453 23.2434 10.1878 23.2434 10.5485C23.2434 11.1827 23.2434 13.9434 23.2894 14.3711C23.3354 14.95 23.7922 15.0751 24.2375 15.1798C24.4415 15.2496 24.5565 15.2613 24.5565 15.526C24.5565 15.8722 24.2835 15.8838 23.9847 15.8838H21.5683H19.445H17.4597H15.5892H13.1843H12.0638H11.4604H9.54398H7.68501H7.09026C6.92074 15.8605 6.86328 15.6889 6.86328 15.5376C6.86328 15.3311 6.96671 15.2613 7.15922 15.2147C7.47814 15.1333 7.68501 15.0634 7.77696 14.8336C7.87752 14.534 7.87752 13.9551 7.9005 13.5042C7.92349 11.4125 7.92349 11.3689 7.92349 9.02126C7.92349 8.11071 7.92349 6.62998 6.33748 6.62998C5.61918 6.62998 5.09626 7.05762 4.92387 7.23216C4.52449 7.61326 4.37508 7.76453 4.37508 8.56162V14.2314C4.37508 14.7638 4.44404 14.9849 5.15085 15.1682C5.34623 15.2147 5.55022 15.2496 5.55022 15.4678C5.55022 15.8489 5.27727 15.8722 4.90088 15.8722H3.15684H0.565214C0.188824 15.8722 0.0193053 15.8722 0.0193053 15.526C0.0193053 15.3194 0.142853 15.2729 0.372709 15.2031C1.06802 14.95 1.06802 14.6707 1.06802 13.6205V11.0314V6.44671V4.8758Z" fill="black"/>
<path opacity="0.9" d="M17.1771 2.5749C17.1771 3.67454 16.3094 4.45999 15.3641 4.45999C14.5424 4.45999 13.6172 3.84617 13.6172 2.66799C13.6172 1.7109 14.393 0.809082 15.4331 0.809082C16.4358 0.809082 17.1771 1.64108 17.1771 2.5749Z" fill="black"/>
</g>
<defs>
<clipPath id="clip0_306_263">
<rect width="46" height="16" fill="white"/>
</clipPath>
</defs>
</svg>
