<?xml version="1.0" encoding="utf-8"?>
<!-- Generator: Adobe Illustrator 19.2.1, SVG Export Plug-In . SVG Version: 6.00 Build 0)  -->
<svg version="1.1" id="layer" xmlns="http://www.w3.org/2000/svg" xmlns:xlink="http://www.w3.org/1999/xlink" x="0px" y="0px"
	 viewBox="0 0 652 652" style="enable-background:new 0 0 652 652;" xml:space="preserve">
<style type="text/css">
	.st0{fill:#1F1F1E;}
</style>
<g>
	<path class="st0" d="M509.6,396.6c0-8.8,5.4-14.6,15.9-14.6c12.4,0,15.9,4.3,20.3,22.2c1.5,6.1,5.2,9.8,14.9,9.8
		c13.1,0,20.3-7.1,20.3-17.7c0-9.2-9.4-16.7-27.7-28.3c-20.1-12.4-31.1-24.1-31.1-41.4c0-26.8,29.8-42.9,57-42.9
		c30.7,0,42.4,13.1,42.4,25.5c0,8.2-5.4,12.7-14.6,12.7c-11.6,0-15.2-4.6-19.1-18.5c-1.8-7-5.4-9.8-12.4-9.8
		c-11,0-18.5,5.7-18.5,15.9c0,9.8,9.7,15.9,31,29.3c20.1,11.8,29,24.7,29,39.9c0,25-27,45.3-60.6,45.3
		C523,423.5,509.6,409.8,509.6,396.6"/>
	<path class="st0" d="M35.5,280.7c0-5.8,0-23.8-0.6-27.4c-0.9-4.9-2.2-5.2-10-7.1c-2.7-0.6-3.3-2.5-3.3-4.6c0-2.7,0.3-3,8.5-4.6
		c16.1-3.7,29.6-9.2,42.7-16.8c2.7-1.9,3.3-1.9,3.9-1.9c2.2,0,2.2,2.5,2.2,5.8v28.9l-0.3,47.1c0,3,0,4.5,1.3,4.5
		c0.3,0,0.9,0,4.5-3.3c12.7-10.7,27-17.1,43.5-17.1c12.4,0,23.7,3.9,32.2,13c7.4,7.7,8.5,19.2,8.5,31.9v73.4c0,6.6,1.3,9.1,9.7,11.3
		c0,0,2.2,1,7.1,1s6.9-0.7,6.9-0.7c9.1-2.7,9.1-6.1,9.1-20.4l-0.3-35.7c0-5.8-0.3-34.7-0.9-38.3c-0.9-4.9-2.2-5.2-10-7.1
		c-2.7-0.6-3.3-2.5-3.3-4.6c0-2.7,0.3-3,8.5-4.6c15.9-3.6,29.5-9.1,42.6-16.8c2.7-1.9,3.3-1.9,3.9-1.9c2.2,0,2.2,2.5,2.2,5.8v105.6
		c0,13,1,15.3,10.4,17.9c0,0,3,1,8.5,1c5.4,0,8.3-1,8.3-1c11-2.7,11-6.6,11-19.8c0-23.1,0-52.9-0.9-69.4c-0.3-10-0.6-10.1-13.7-12.4
		c-3.3-0.6-3.6-2.2-3.6-4.5c0-3.3,1.3-3.6,6.3-4.5c11.6-2.5,29.5-7.1,45.1-16.2c4.9-3,5.5-3,6.3-3c1.9,0,1.9,2.2,1.9,3.9v11.8
		c0,2.7,0,3.9,1.3,3.9c0.9,0,1.3,0,3.3-1.9c13.6-12.1,25.3-17.9,40.5-17.9c13.7,0,24.7,4.5,32.8,15.3c4.2,5.5,4.5,5.8,5.5,5.8
		c0.6,0,1,0,6.1-4.6c8.5-8,22.8-16.8,41.5-16.8c2.5,0,26.7,0.3,36.3,17.3c3.6,6.3,5.5,9.7,5.5,46.2v54.8c0,4.6,0,9.1,8.8,11.3
		c3.3,0.9,5.2,1.3,5.2,5.2c0,2.5-0.6,4.2-4.5,4.5H498h-30.2h-22.5c-2.7,0-6.1-0.6-6.1-5.2c0-2.7,1.6-3.3,4.6-4.2
		c5.5-1.6,9.1-2.5,9.1-15.9v-26.7c0-7.7,0-42.6-0.6-47.4c-0.3-4.6-1.6-20.8-20.1-20.8c-5.5,0-21.7,4.2-21.7,19.5v78.9
		c0,8,1.3,10,10.1,12.1c3,0.9,4.9,1.3,4.9,4.5c0,4.6-2.5,5.2-9.8,5.2h-24h-31.4c-3.9,0-6.9-0.3-6.9-4.6c0-2.7,1-3.3,3.9-4.2
		c10-3,10-6.9,10-19.2c0-13,0-66.6-1.3-75.4c-1.9-11.3-11.6-14.9-18.9-14.9c-9.4,0-18.5,6.6-21.1,13.6c-0.9,2.2-0.9,31.4-0.9,36
		c0,8.2,0,43.8,0.6,49.3c0.6,7.4,6.6,9.1,12.4,10.4c2.7,0.9,4.2,1,4.2,4.5c0,4.5-3.6,4.6-7.4,4.6h-31.6h-27.7h-25.9H225h-31.4H179
		h-7.9h-25h-24.3h-7.7c-2.2-0.3-3-2.5-3-4.5c0-2.7,1.3-3.6,3.9-4.2c4.2-1,6.9-1.9,8-4.9c1.3-3.9,1.3-11.3,1.6-17.1
		c0.3-27,0.3-27.6,0.3-57.8c0-11.8,0-30.8-20.7-30.8c-9.4,0-16.2,5.5-18.5,7.7c-5.2,4.9-7.1,6.9-7.1,17.1v73.1
		c0,6.9,0.9,9.7,10.1,12.1c2.5,0.6,5.2,1,5.2,3.9c0,4.9-3.6,5.2-8.5,5.2H62.7H28.9c-4.9,0-7.1,0-7.1-4.5c0-2.7,1.6-3.3,4.6-4.2
		c9.1-3.3,9.1-6.9,9.1-20.4v-33.4V301V280.7z"/>
	<path class="st0" d="M222.9,228.3c-13.6,0-23.7,11.6-23.7,24c0,15.2,12.1,23.1,22.8,23.1c12.4,0,23.7-10.1,23.7-24.3
		C245.7,239,236.1,228.3,222.9,228.3"/>
</g>
</svg>
