<svg width="145" height="28" viewBox="0 0 145 28" fill="none" xmlns="http://www.w3.org/2000/svg">
    <g clip-path="url(#clip0_157_1545)">
        <path d="M27.4026 0.0196516H36.9523C41.0464 0.0196516 43.779 2.50649 43.779 6.8609C43.779 11.2153 41.0464 13.7316 36.9523 13.7316H31.4967V21.7819H27.4026V0.0196516ZM36.5016 10.0063C38.6206 10.0063 39.6849 8.72849 39.6849 6.8609C39.6849 4.99332 38.6206 3.75482 36.5016 3.75482H31.4967V10.0063H36.5016Z"
              fill="#2757FF"/>
        <path d="M44.4118 17.5258C44.4118 14.1642 46.9622 12.6406 49.9633 12.3949L53.7889 12.0509V11.6773C53.7889 10.2816 52.8493 9.19051 51.3631 9.19051H51.1234C49.6373 9.19051 48.7552 10.1538 48.6689 11.0581H44.7282C45.035 8.13876 47.4608 5.92715 51.2481 5.92715C55.0353 5.92715 57.6145 7.8832 57.6145 11.5201V18.3613C57.6145 19.2951 57.6145 20.6909 57.7679 21.7819H54.067C53.9711 21.32 53.9135 20.6024 53.8848 19.8849C52.9739 21.2217 51.3727 22.0965 49.3976 22.0965C46.665 22.0965 44.4214 20.3272 44.4214 17.5258H44.4118ZM50.4139 18.8331C52.1781 18.8331 53.7793 17.4668 53.7793 15.442V15.0095L50.5002 15.3535C49.503 15.442 48.2854 15.9728 48.2854 17.2506C48.2854 18.2139 49.1004 18.8331 50.1646 18.8331H50.4139Z"
              fill="#2757FF"/>
        <path d="M59.3979 14.0167C59.3979 9.04304 62.5812 5.93696 66.6752 5.93696C70.7693 5.93696 73.1951 7.80454 73.5019 11.6871H69.5612C69.3215 10.1636 68.4394 9.20031 66.7999 9.20031H66.5602C64.3166 9.20031 63.3482 11.3726 63.3482 14.0167C63.3482 16.6608 64.3166 18.8331 66.5602 18.8331H66.7999C68.4394 18.8331 69.3215 17.8698 69.5612 16.3463H73.5019C73.1951 20.2289 70.6255 22.0965 66.6752 22.0965C62.725 22.0965 59.3979 18.9904 59.3979 14.0167Z"
              fill="#2757FF"/>
        <path d="M75.4099 0.0196516H79.3506V12.0213L84.8446 6.24165H89.6673L83.8474 12.4243L89.9742 21.7819H85.3335L81.1148 15.3142L79.3602 17.1523V21.7819H75.4195V0.0196516H75.4099Z"
              fill="#2757FF"/>
        <path d="M91.4795 0.0196516H95.4202V8.50241C96.331 6.94937 98.0281 5.92711 100.003 5.92711C103.647 5.92711 105.277 8.41395 105.277 11.8346V21.7819H101.336V12.2966C101.336 10.2717 100.454 9.19047 98.939 9.19047H98.6993C96.8776 9.19047 95.4202 10.9598 95.4202 13.1419V21.7819H91.4795V0.0196516Z"
              fill="#2757FF"/>
        <path d="M107.281 14.0167C107.281 9.35758 109.946 5.93696 114.5 5.93696C119.055 5.93696 121.413 9.32809 121.413 13.83C121.413 14.2919 121.385 14.7932 121.356 15.2945H111.106C111.26 17.4373 112.899 18.8429 114.529 18.8429H114.769C116.255 18.8429 117.166 17.9386 117.434 16.8869H121.346C120.618 19.934 118.288 22.1063 114.491 22.1063C110.694 22.1063 107.271 19.1575 107.271 14.0265L107.281 14.0167ZM117.588 12.1786C117.501 10.311 116.102 9.19048 114.462 9.19048H114.222C112.583 9.19048 111.193 10.311 111.097 12.1786H117.588Z"
              fill="#2757FF"/>
        <path d="M123.561 0.0196516H127.502V21.7819H123.561V0.0196516Z" fill="#2757FF"/>
        <path d="M129.966 6.24167H133.907V8.26652C134.511 7.17546 136.15 5.93696 138.269 5.93696C142.67 5.93696 145 9.81956 145 14.0167C145 18.2139 142.661 22.0965 138.269 22.0965C136.15 22.0965 134.511 20.8481 133.907 19.7669V28.0039H129.966V6.24167ZM137.358 18.8331H137.598C139.573 18.8331 141.059 16.9655 141.059 14.0167C141.059 11.0679 139.573 9.20031 137.598 9.20031H137.358C135.537 9.20031 133.897 11.0679 133.897 14.0167C133.897 16.9655 135.537 18.8331 137.358 18.8331Z"
              fill="#2757FF"/>
        <path d="M0 2.01502V21.7819H4.09409V4.19715H17.1626V17.5946H8.18819V21.7917H19.2816C20.365 21.7917 21.2471 20.8874 21.2471 19.7767V2.01502C21.2471 0.904303 20.365 0 19.2816 0H1.96555C0.8821 0 0 0.904303 0 2.01502Z"
              fill="#2757FF"/>
    </g>
    <defs>
        <clipPath id="clip0_157_1545">
            <rect width="145" height="28" fill="white"/>
        </clipPath>
    </defs>
</svg>
