<svg width="104" height="104" viewBox="0 0 104 104" fill="none" xmlns="http://www.w3.org/2000/svg">
<path d="M84.4915 42.4391L75.5788 45.1479L57.7535 50.6528L55.3943 49.8664L40.7146 45.3227L24.7243 40.342L23.4141 38.245L45.521 34.2255L47.8802 33.875L55.9185 35.4488H56.0059L56.3554 35.5362L75.9283 40.342L84.4915 42.4391Z" fill="#F2F2F2" stroke="#555555" stroke-width="1.5" stroke-miterlimit="10" stroke-linejoin="round"/>
<path d="M84.4884 42.6133H84.5757L84.4884 42.9628L82.3911 70.5745L77.5852 65.3318L74.0029 60.9629L73.8281 60.7881L84.401 42.6133H84.4884Z" fill="#F2F2F2" stroke="#555555" stroke-width="1.5" stroke-miterlimit="10" stroke-linejoin="round"/>
<path d="M84.4923 42.4375L84.4049 42.6123L73.832 60.7871L67.2786 63.4084L63.6087 58.5152L57.9291 51.2628L57.7543 51.088L57.5796 50.9133L57.4922 50.6511L57.5796 50.7385L57.7543 50.6511L84.4923 42.4375Z" fill="#F2F2F2" stroke="#555555" stroke-width="1.5" stroke-miterlimit="10" stroke-linejoin="round"/>
<path d="M82.3985 70.5737L55.5732 84.0299L55.4858 84.1173L55.3984 83.9425L67.2819 63.4085L73.8353 60.7871L73.9227 60.9619H74.0101L77.5926 65.331L82.3985 70.5737Z" fill="#F2F2F2" stroke="#555555" stroke-width="1.5" stroke-miterlimit="10" stroke-linejoin="round"/>
<path d="M57.5765 50.9141L57.7513 51.0888L57.9261 51.2636L63.6057 58.516L67.2756 63.4091L55.3921 83.9431V83.8558L55.3047 83.9431L57.5765 50.9141Z" fill="#F2F2F2" stroke="#555555" stroke-width="1.5" stroke-miterlimit="10" stroke-linejoin="round"/>
<path d="M57.5798 50.9224L56.8916 62.5438V62.6313L55.5915 83.9518L55.5151 84.0392V84.1266L55.2856 83.9518L30.8419 71.448L23.8516 68.0073V38.5605L28.8258 40.3495L42.8204 45.4175L55.668 49.9612V50.0486L57.5034 50.6603L57.4269 50.7476V50.835L57.5034 50.9224H57.5798Z" fill="#F2F2F2" stroke="#555555" stroke-width="1.5" stroke-miterlimit="10" stroke-linejoin="round"/>
<path d="M57.4922 61.7488L64.0456 59.2148" stroke="#555555" stroke-width="1.5" stroke-miterlimit="10" stroke-linecap="round" stroke-linejoin="round"/>
<path d="M76.9766 64.3694L82.831 61.8359" stroke="#555555" stroke-width="1.5" stroke-miterlimit="10" stroke-linecap="round" stroke-linejoin="round"/>
</svg>
