<svg width="104" height="104" viewBox="0 0 104 104" fill="none" xmlns="http://www.w3.org/2000/svg">
<path d="M24.9531 27.4C24.9531 27.4 24.9531 24.3 28.4531 24.3C30.0531 24.3 49.4531 23 50.1531 23C50.8531 23 51.6531 23.2 51.3531 23.7C51.0531 24.2 49.8531 25.6 49.8531 25.6L24.9531 27.4Z" fill="#F8F8F8" stroke="#555555" stroke-width="1.5" stroke-miterlimit="10" stroke-linejoin="round"/>
<path d="M60.1562 45.8008L69.7562 38.8008L83.0563 41.6008L78.1562 48.5008L78.2562 49.2008L77.2562 50.1008L60.1562 45.8008Z" fill="#F8F8F8" stroke="#555555" stroke-width="1.5" stroke-miterlimit="10" stroke-linejoin="round"/>
<path d="M52.7547 54.5L38.8547 48.6L25.5547 45L35.0547 49.5L52.7547 54.5Z" fill="#F8F8F8" stroke="#555555" stroke-width="1.5" stroke-miterlimit="10" stroke-linejoin="round"/>
<path d="M59.4516 45.6016L59.0516 53.4016L52.7516 54.5016L38.8516 48.6016L59.4516 45.6016Z" fill="#F8F8F8" stroke="#555555" stroke-width="1.5" stroke-miterlimit="10" stroke-linejoin="round"/>
<path d="M59.4547 45.6016L59.0547 53.4016L77.2547 50.1016L59.4547 45.6016Z" fill="#F8F8F8" stroke="#555555" stroke-width="1.5" stroke-miterlimit="10" stroke-linejoin="round"/>
<path d="M77.2533 50.1016L76.0032 77.001L51.6016 84.001L52.7533 54.5016L77.2533 50.1016Z" fill="#F8F8F8" stroke="#555555" stroke-width="1.5" stroke-miterlimit="10" stroke-linejoin="round"/>
<path d="M35.0504 49.5L52.7504 54.5L51.5984 84L34.5 74L35.0504 49.5Z" fill="#F8F8F8" stroke="#555555" stroke-width="1.5" stroke-miterlimit="10" stroke-linejoin="round"/>
<path d="M59.4531 45.6016L49.8531 25.6016L24.9531 27.4016L34.1531 47.3016L38.8531 48.6016L59.4531 45.6016Z" fill="#F8F8F8" stroke="#555555" stroke-width="1.5" stroke-miterlimit="10" stroke-linejoin="round"/>
</svg>
