<svg width="104" height="104" viewBox="0 0 104 104" fill="none" xmlns="http://www.w3.org/2000/svg">
<path d="M77.9983 73.6274L53.3186 83.9107L53.7898 48.4661L78.9749 42.6219L77.9983 73.6274Z" fill="#F8F8F8" stroke="#555555" stroke-width="1.5" stroke-miterlimit="10" stroke-linejoin="round"/>
<path d="M53.793 48.4645L53.3218 83.9091L29.4262 74.0888L29.0997 73.8565L28.7541 40.9977L53.793 48.4645Z" fill="#F8F8F8" stroke="#555555" stroke-width="1.5" stroke-miterlimit="10" stroke-linejoin="round"/>
<path d="M51.4497 35.0506L28.7522 40.9926L53.7911 48.4594L78.9762 42.6152L51.4497 35.0506Z" fill="#F8F8F8" stroke="#555555" stroke-width="1.5" stroke-miterlimit="10" stroke-linejoin="round"/>
<path d="M63.6569 39.1571L63.3197 35.3176L63.107 33.2387L63.0929 32.6779L62.9987 32.1191L62.8243 31.5623L62.652 31.0857L62.4001 30.611L62.1517 30.2966L61.8231 29.9843L61.4965 29.752L61.0116 29.6038L60.0467 29.4678L59.5658 29.4799L57.8089 29.7646L54.0579 30.4201L48.3099 31.3663L47.7511 31.4605L47.1944 31.6349L46.7197 31.8873L45.7745 32.5524L45.4661 33.0411L45.1597 33.61L44.7073 34.7437L44.5652 35.4688L44.5012 36.1117L44.5173 36.7526L44.1656 41.892L44.0498 43.6585L44.6246 44.2052L63.2103 40.531L63.2884 40.449L63.5949 39.8801L63.6569 39.1571ZM59.659 36.3717L59.5149 37.0166L59.0522 37.7498L58.5794 38.0823L58.1027 38.2546L54.3537 38.9903L50.5243 39.7279L49.9636 39.742L49.8013 39.6659L49.3126 39.3576L48.98 38.8849L48.8939 38.6466L48.8057 38.3282L48.7896 37.6872L48.9336 37.0423L49.0858 36.7178L49.24 36.4734L49.4743 36.2271L49.9469 35.8945L50.4236 35.7222L54.2549 35.0647L58.0059 34.4091L58.4867 34.397L58.7292 34.4711L59.0578 34.7835L59.3904 35.2561L59.4766 35.4945L59.5648 35.8129L59.5728 36.1333L59.659 36.3717Z" fill="#F8F8F8" stroke="#555555" stroke-width="1.5" stroke-miterlimit="10" stroke-linejoin="round"/>
<path d="M44.3974 38.1944C44.3974 38.1944 36.8773 41.9909 43.5973 44.6276C49.1836 46.8119 54.5391 46.1962 55.5806 46.17C57.5837 46.1196 78.9774 42.5352 78.9774 42.5352" stroke="#555555" stroke-width="1.5" stroke-miterlimit="10" stroke-linejoin="round"/>
</svg>
