<svg width="104" height="104" viewBox="0 0 104 104" fill="none" xmlns="http://www.w3.org/2000/svg">
<path d="M56.0649 62.7615L43.9531 49.0291L59.2208 46.0438L72.0149 43.5703H72.4414L80.8855 52.3556L60.8414 56.9615L60.4149 57.1321L59.9884 57.3027L59.562 57.6438L59.1355 57.8997L58.7943 58.3262L58.4531 58.6674L57.7708 59.5203L57.0884 60.4586L56.5767 61.3968L56.1502 62.2497L56.0649 62.7615Z" fill="#F8F8F8" stroke="#555555" stroke-width="1.5" stroke-miterlimit="10" stroke-linejoin="round"/>
<path d="M79.0089 37.0881L72.356 43.0587L72.4413 43.5704H72.0148L59.4766 40.3293L60.6707 39.391L62.1207 39.0498L69.8824 35.041L79.0089 37.0881Z" fill="#F8F8F8" stroke="#555555" stroke-width="1.5" stroke-miterlimit="10" stroke-linejoin="round"/>
<path d="M59.4746 40.4154V40.3301L72.0129 43.5713L59.2188 46.0448L59.4746 40.4154Z" fill="#F8F8F8" stroke="#555555" stroke-width="1.5" stroke-miterlimit="10" stroke-linejoin="round"/>
<path d="M71.5038 58.7528L70.9994 75.5L43.0625 83.9999L43.9538 49.0293L56.0655 62.7617L71.5038 58.7528Z" fill="#F8F8F8" stroke="#555555" stroke-width="1.5" stroke-miterlimit="10" stroke-linejoin="round"/>
<path d="M50.6105 34.6147V34.4441V34.1882V33.9324L50.5252 33.7618V33.6765V33.5912L50.4399 33.5059L50.3546 33.4206L50.184 33.25L50.0134 33.1647L49.8428 33.0794H49.587L47.3693 33.4206L47.1134 33.1647L46.8575 32.9941L46.6017 32.9088H46.3458H46.0899H46.0046H45.9193H45.834L45.5781 32.9941L45.237 33.1647L44.9811 33.4206L44.7252 33.7618L42.4222 34.1029L42.1664 34.1882L41.9105 34.3588L41.6546 34.5294L41.484 34.7853L41.3134 35.0412L41.2281 35.3824V35.5529V35.8088V36.0647V36.3206L41.3134 36.5765L41.3987 36.6618V36.7471V36.8324L41.5693 37.0029L41.7399 37.0882L41.9958 37.1735H42.2517L44.5546 36.8324L44.8105 37.0882L45.0664 37.2588L45.4928 37.3441H45.7487H46.0046L46.2605 37.2588L46.5164 37.1735L46.7722 37.0029L47.0281 36.7471L47.284 36.4059L49.3311 36.15H49.5017L49.7575 36.0647L50.0134 35.9794L50.184 35.8088L50.3546 35.5529L50.5252 35.2971L50.6105 35.0412V34.6147ZM31.2487 39.3059V37.0882V37.0029V34.1029V33.9324L31.334 29.1559L59.7369 26L59.3957 32.7382V32.8235V33.0794V33.1647L59.0545 40.3294L58.9692 40.7559L58.8839 41.1824L58.7986 41.6088L58.6281 42.0353L58.4575 42.4618L58.2016 42.8882L57.9457 43.2294L57.6898 43.5706L57.3486 43.8265L57.0075 43.9971L56.6663 44.1677L56.3251 44.2529L39.5222 47.2382L33.2958 44.6794L31.0781 43.9971L31.2487 39.3059Z" fill="#F8F8F8" stroke="#555555" stroke-width="1.5" stroke-miterlimit="10" stroke-linejoin="round"/>
<path d="M59.475 40.4154L59.2191 46.0448L43.9516 49.0301L39.6016 47.3242L56.3191 44.3389L56.6603 44.1683L57.0015 44.083L57.3427 43.8271L57.6838 43.5713L57.9397 43.3154L58.1956 42.9742L58.4515 42.5477L58.7074 42.1213L58.7927 41.6948L58.9633 41.2683L59.0485 40.7565V40.3301L59.475 40.4154Z" fill="#F8F8F8" stroke="#555555" stroke-width="1.5" stroke-miterlimit="10" stroke-linejoin="round"/>
<path d="M43.9534 49.0303L43.1857 84.0011L30.6406 76.5455L30.9887 45.0215H31.1593L31.3299 45.1068L43.9534 49.0303Z" fill="#F8F8F8" stroke="#555555" stroke-width="1.5" stroke-miterlimit="10" stroke-linejoin="round"/>
<path d="M43.9542 49.0286L31.1601 45.0198H30.9895L29.7101 44.508L29.6248 44.3375L24.4219 41.9492L31.1601 44.0816L33.3778 44.7639L39.6042 47.3228L43.9542 49.0286Z" fill="url(#paint0_linear_312_900)" stroke="#555555" stroke-width="1.5" stroke-miterlimit="10" stroke-linecap="round" stroke-linejoin="round"/>
<path d="M31.2422 34.1875V37.0875" stroke="#555555" stroke-width="1.5" stroke-miterlimit="10" stroke-linecap="round" stroke-linejoin="round"/>
<path d="M31.2415 37.5156V39.3068L31.1562 44.0833" fill="url(#paint1_linear_312_900)"/>
<path d="M31.2415 37.5156V39.3068L31.1562 44.0833" stroke="#555555" stroke-width="1.5" stroke-miterlimit="10" stroke-linecap="round" stroke-linejoin="round"/>
<path d="M49.2449 36.1504L48.5625 36.2357" stroke="#555555" stroke-width="1.5" stroke-miterlimit="10" stroke-linecap="round" stroke-linejoin="round"/>
<path d="M49.4987 36.0645H49.3281" stroke="#555555" stroke-width="1.5" stroke-miterlimit="10" stroke-linecap="round" stroke-linejoin="round"/>
<path d="M47.0248 36.7461L46.7689 37.002L46.4278 37.1726L46.1719 37.2579" fill="url(#paint2_linear_312_900)"/>
<path d="M47.0248 36.7461L46.7689 37.002L46.4278 37.1726L46.1719 37.2579" stroke="#555555" stroke-width="1.5" stroke-miterlimit="10" stroke-linecap="round" stroke-linejoin="round"/>
<path d="M44.721 36.7461L42.418 37.0873H42.1621H41.9062" fill="url(#paint3_linear_312_900)"/>
<path d="M44.721 36.7461L42.418 37.0873H42.1621H41.9062" stroke="#555555" stroke-width="1.5" stroke-miterlimit="10" stroke-linecap="round" stroke-linejoin="round"/>
<path d="M41.4837 36.6608L41.3984 36.4902V36.5755" fill="url(#paint4_linear_312_900)"/>
<path d="M41.4837 36.6608L41.3984 36.4902V36.5755" stroke="#555555" stroke-width="1.5" stroke-miterlimit="10" stroke-linecap="round" stroke-linejoin="round"/>
<path d="M50.5234 33.6758V33.7611L50.6087 33.9317" fill="url(#paint5_linear_312_900)"/>
<path d="M50.5234 33.6758V33.7611L50.6087 33.9317" stroke="#555555" stroke-width="1.5" stroke-miterlimit="10" stroke-linecap="round" stroke-linejoin="round"/>
<path d="M50.6094 34.1875V34.4434V34.614V34.6993" stroke="#555555" stroke-width="1.5" stroke-miterlimit="10" stroke-linecap="round" stroke-linejoin="round"/>
<path d="M50.6087 34.1882V34.0176L50.5234 33.7617" fill="url(#paint6_linear_312_900)"/>
<path d="M50.6087 34.1882V34.0176L50.5234 33.7617" stroke="#555555" stroke-width="1.5" stroke-miterlimit="10" stroke-linecap="round" stroke-linejoin="round"/>
<path d="M45.5778 32.9941L45.3219 33.1647L45.066 33.4206L44.8101 33.7618L42.4219 34.103" fill="url(#paint7_linear_312_900)"/>
<path d="M45.5778 32.9941L45.3219 33.1647L45.066 33.4206L44.8101 33.7618L42.4219 34.103" stroke="#555555" stroke-width="1.5" stroke-miterlimit="10" stroke-linecap="round" stroke-linejoin="round"/>
<path d="M41.3971 34.9551L41.3119 35.2963L41.2266 35.5521V35.7227V35.9786L41.3119 36.2345L41.3971 36.4904" fill="url(#paint8_linear_312_900)"/>
<path d="M41.3971 34.9551L41.3119 35.2963L41.2266 35.5521V35.7227V35.9786L41.3119 36.2345L41.3971 36.4904" stroke="#555555" stroke-width="1.5" stroke-miterlimit="10" stroke-linecap="round" stroke-linejoin="round"/>
<path d="M41.4844 36.6621V36.7474L41.7403 36.918L41.9108 37.0886" fill="url(#paint9_linear_312_900)"/>
<path d="M41.4844 36.6621V36.7474L41.7403 36.918L41.9108 37.0886" stroke="#555555" stroke-width="1.5" stroke-miterlimit="10" stroke-linecap="round" stroke-linejoin="round"/>
<path d="M44.7188 36.7461L44.8893 37.002L45.1452 37.1726L45.4864 37.3432H45.7423H45.9129L46.1688 37.2579" fill="url(#paint10_linear_312_900)"/>
<path d="M44.7188 36.7461L44.8893 37.002L45.1452 37.1726L45.4864 37.3432H45.7423H45.9129L46.1688 37.2579" stroke="#555555" stroke-width="1.5" stroke-miterlimit="10" stroke-linecap="round" stroke-linejoin="round"/>
<path d="M49.5 36.0651L49.7559 35.9798L49.9265 35.8945" fill="url(#paint11_linear_312_900)"/>
<path d="M49.5 36.0651L49.7559 35.9798L49.9265 35.8945" stroke="#555555" stroke-width="1.5" stroke-miterlimit="10" stroke-linecap="round" stroke-linejoin="round"/>
<path d="M50.1797 35.7221L50.3503 35.4662L50.4356 35.2103L50.6062 34.8692V34.6133" fill="url(#paint12_linear_312_900)"/>
<path d="M50.1797 35.7221L50.3503 35.4662L50.4356 35.2103L50.6062 34.8692V34.6133" stroke="#555555" stroke-width="1.5" stroke-miterlimit="10" stroke-linecap="round" stroke-linejoin="round"/>
<path d="M31.2422 39.3055V37.1732V37.0879" stroke="#555555" stroke-width="1.5" stroke-miterlimit="10" stroke-linecap="round" stroke-linejoin="round"/>
<path d="M31.2422 34.1873V34.0167L31.3275 29.2402" fill="url(#paint13_linear_312_900)"/>
<path d="M31.2422 34.1873V34.0167L31.3275 29.2402" stroke="#555555" stroke-width="1.5" stroke-miterlimit="10" stroke-linecap="round" stroke-linejoin="round"/>
<path d="M59.4766 40.3301L72.0148 43.5713" stroke="#555555" stroke-width="1.5" stroke-miterlimit="10" stroke-linejoin="round"/>
<path d="M59.4746 40.3301V40.4154L59.2188 46.0448" fill="url(#paint14_linear_312_900)"/>
<path d="M59.4746 40.3301V40.4154L59.2188 46.0448" stroke="#555555" stroke-width="1.5" stroke-miterlimit="10" stroke-linecap="round" stroke-linejoin="round"/>
<path d="M43.1875 83.9999L43.9551 49.0293" stroke="#555555" stroke-width="1.5" stroke-miterlimit="10" stroke-linecap="round" stroke-linejoin="round"/>
<path d="M71.5007 58.7533L56.0625 62.7621L57.086 60.4591L57.7684 59.5209L58.4507 58.668L58.7919 58.3268L59.1331 57.9003L59.5596 57.6444L59.986 57.3033L60.4125 57.1327L60.839 56.9621L80.8831 52.3562L84.8919 51.418H85.1478L85.3184 51.5033L85.489 51.6739L85.5743 51.8444V52.1003V52.3562L85.3184 53.1239L84.9772 53.8915L84.5507 54.6591L84.039 55.4268L83.9537 55.5121L71.5007 58.7533Z" fill="#F8F8F8" stroke="#555555" stroke-width="1.5" stroke-miterlimit="10" stroke-linejoin="round"/>
<defs>
<linearGradient id="paint0_linear_312_900" x1="34.2013" y1="41.9853" x2="34.2013" y2="48.9914" gradientUnits="userSpaceOnUse">
<stop stop-color="#DCE4EA"/>
<stop offset="1" stop-color="#819AAB"/>
</linearGradient>
<linearGradient id="paint1_linear_312_900" x1="31.2118" y1="37.5116" x2="31.2118" y2="44.0644" gradientUnits="userSpaceOnUse">
<stop stop-color="#DCE4EA"/>
<stop offset="1" stop-color="#819AAB"/>
</linearGradient>
<linearGradient id="paint2_linear_312_900" x1="46.6065" y1="36.7144" x2="46.6065" y2="37.2763" gradientUnits="userSpaceOnUse">
<stop stop-color="#DCE4EA"/>
<stop offset="1" stop-color="#819AAB"/>
</linearGradient>
<linearGradient id="paint3_linear_312_900" x1="43.3015" y1="36.7737" x2="43.3015" y2="37.1141" gradientUnits="userSpaceOnUse">
<stop stop-color="#DCE4EA"/>
<stop offset="1" stop-color="#819AAB"/>
</linearGradient>
<linearGradient id="paint4_linear_312_900" x1="41.4219" y1="36.4968" x2="41.4219" y2="36.6195" gradientUnits="userSpaceOnUse">
<stop stop-color="#DCE4EA"/>
<stop offset="1" stop-color="#819AAB"/>
</linearGradient>
<linearGradient id="paint5_linear_312_900" x1="50.5433" y1="33.6757" x2="50.5433" y2="33.9051" gradientUnits="userSpaceOnUse">
<stop stop-color="#DCE4EA"/>
<stop offset="1" stop-color="#819AAB"/>
</linearGradient>
<linearGradient id="paint6_linear_312_900" x1="50.5908" y1="33.7871" x2="50.5908" y2="34.2105" gradientUnits="userSpaceOnUse">
<stop stop-color="#DCE4EA"/>
<stop offset="1" stop-color="#819AAB"/>
</linearGradient>
<linearGradient id="paint7_linear_312_900" x1="44.0315" y1="32.9839" x2="44.0315" y2="34.0721" gradientUnits="userSpaceOnUse">
<stop stop-color="#DCE4EA"/>
<stop offset="1" stop-color="#819AAB"/>
</linearGradient>
<linearGradient id="paint8_linear_312_900" x1="41.3316" y1="34.9734" x2="41.3316" y2="36.4969" gradientUnits="userSpaceOnUse">
<stop stop-color="#DCE4EA"/>
<stop offset="1" stop-color="#819AAB"/>
</linearGradient>
<linearGradient id="paint9_linear_312_900" x1="41.6857" y1="36.6207" x2="41.6857" y2="37.0521" gradientUnits="userSpaceOnUse">
<stop stop-color="#DCE4EA"/>
<stop offset="1" stop-color="#819AAB"/>
</linearGradient>
<linearGradient id="paint10_linear_312_900" x1="45.446" y1="36.7737" x2="45.446" y2="37.3475" gradientUnits="userSpaceOnUse">
<stop stop-color="#DCE4EA"/>
<stop offset="1" stop-color="#819AAB"/>
</linearGradient>
<linearGradient id="paint11_linear_312_900" x1="49.7204" y1="35.8848" x2="49.7204" y2="36.0787" gradientUnits="userSpaceOnUse">
<stop stop-color="#DCE4EA"/>
<stop offset="1" stop-color="#819AAB"/>
</linearGradient>
<linearGradient id="paint12_linear_312_900" x1="50.3884" y1="34.6444" x2="50.3884" y2="35.6969" gradientUnits="userSpaceOnUse">
<stop stop-color="#DCE4EA"/>
<stop offset="1" stop-color="#819AAB"/>
</linearGradient>
<linearGradient id="paint13_linear_312_900" x1="31.3034" y1="29.2277" x2="31.3034" y2="34.1463" gradientUnits="userSpaceOnUse">
<stop stop-color="#DCE4EA"/>
<stop offset="1" stop-color="#819AAB"/>
</linearGradient>
<linearGradient id="paint14_linear_312_900" x1="59.3134" y1="40.3446" x2="59.3134" y2="46.0189" gradientUnits="userSpaceOnUse">
<stop stop-color="#DCE4EA"/>
<stop offset="1" stop-color="#819AAB"/>
</linearGradient>
</defs>
</svg>
