<svg width="104" height="104" viewBox="0 0 104 104" fill="none" xmlns="http://www.w3.org/2000/svg">
<path d="M84.4915 42.4391L75.5788 45.1479L57.7535 50.6528L55.3943 49.8664L40.7146 45.3227L24.7243 40.342L23.4141 38.245L45.521 34.2255L47.8802 33.875L55.9185 35.4488H56.0059L56.3554 35.5362L75.9283 40.342L84.4915 42.4391Z" fill="#F2F2F2" stroke="#555555" stroke-width="1.5" stroke-miterlimit="10" stroke-linejoin="round"/>
<path d="M81.3438 71.0114H82.829L84.4894 42.9628L84.5768 42.6133H84.4894H84.402" stroke="#555555" stroke-width="1.5" stroke-miterlimit="10" stroke-linejoin="round"/>
<path d="M56 84L82.3543 71.0998L84 43.5L58.4999 51.5L56 84Z" fill="#F2F2F2" stroke="#555555" stroke-width="1.5" stroke-miterlimit="10" stroke-linejoin="round"/>
<path d="M57.5798 50.9224L56.8916 62.5438V62.6313L55.5151 84.1266L30.8419 71.448L23.8516 68.0073V38.5605L28.8258 40.3495L42.8204 45.4175L55.668 49.9612L57.5798 50.7188V50.9224Z" fill="#F2F2F2" stroke="#555555" stroke-width="1.5" stroke-miterlimit="10" stroke-linejoin="round"/>
</svg>
