<svg width="104" height="104" viewBox="0 0 104 104" fill="none" xmlns="http://www.w3.org/2000/svg">
<path d="M84.4915 42.4391L75.5788 45.1479L57.7535 50.6528L55.3943 49.8664L40.7146 45.3227L24.7243 40.342L23.4141 38.245L45.521 34.2255L47.8802 33.875L55.9185 35.4488H56.0059L56.3554 35.5362L75.9283 40.342L84.4915 42.4391Z" fill="#F2F2F2" stroke="#555555" stroke-width="1.5" stroke-miterlimit="10" stroke-linejoin="round"/>
<path d="M84.4884 42.6133H84.5757L84.4884 42.9628L82.828 71.0113H81.3427L77.2359 65.419L74.0029 60.9629L73.8281 60.7881L84.401 42.6133H84.4884Z" fill="#F2F2F2" stroke="#555555" stroke-width="1.5" stroke-miterlimit="10" stroke-linejoin="round"/>
<path d="M84.4923 42.4395L84.4049 42.6142L73.832 60.789L67.2786 63.4104L63.6087 58.5172L57.9291 51.2647L57.7543 51.09L57.5796 50.9152L57.4922 50.6531L57.5796 50.7405L57.7543 50.6531L84.4923 42.4395Z" fill="#F2F2F2" stroke="#555555" stroke-width="1.5" stroke-miterlimit="10" stroke-linejoin="round"/>
<path d="M55.5732 84.0319L82.3548 71.0998L77.2431 65.4202L74.0101 60.9638H73.9227L73.8353 60.7891L67.2819 63.4104L55.3984 83.9445L55.4858 84.1192L55.5732 84.0319Z" fill="#F2F2F2" stroke="#555555" stroke-width="1.5" stroke-miterlimit="10" stroke-linejoin="round"/>
<path d="M57.5765 50.9141L57.7513 51.0888L57.9261 51.2636L63.6057 58.516L67.2756 63.4091L55.3921 83.9431V83.8558L55.3047 83.9431L57.5765 50.9141Z" fill="#F2F2F2" stroke="#555555" stroke-width="1.5" stroke-miterlimit="10" stroke-linejoin="round"/>
<path d="M57.5798 50.9224L56.8916 62.5438V62.6313L55.5915 83.9518L55.5151 84.0392V84.1266L55.2856 83.9518L30.8419 71.448L23.8516 68.0073V38.5605L28.8258 40.3495L42.8204 45.4175L55.668 49.9612V50.0486L57.5034 50.6603L57.4269 50.7476V50.835L57.5034 50.9224H57.5798Z" fill="#F2F2F2" stroke="#555555" stroke-width="1.5" stroke-miterlimit="10" stroke-linejoin="round"/>
</svg>
